<?xml version="1.0" encoding="utf-8"?>
<!-- Generator: Adobe Illustrator 22.0.1, SVG Export Plug-In . SVG Version: 6.00 Build 0)  -->
<svg version="1.2" baseProfile="tiny" id="Layer_1" xmlns="http://www.w3.org/2000/svg" xmlns:xlink="http://www.w3.org/1999/xlink"
	 x="0px" y="0px" viewBox="0 0 200 70" xml:space="preserve">
<g>
	<g>
		<path d="M41.6,35.9v11.8h-1.9V21.6h6.7c3,0,5.3,0.6,6.8,1.7c1.5,1.2,2.2,2.9,2.2,5.1c0,1-0.2,1.9-0.5,2.7
			c-0.3,0.8-0.8,1.6-1.5,2.2c-0.6,0.6-1.4,1.1-2.3,1.5c-0.9,0.4-1.9,0.7-3.1,0.8c0.3,0.2,0.6,0.4,0.8,0.7l9,11.3h-1.6
			c-0.2,0-0.4,0-0.5-0.1c-0.1-0.1-0.3-0.2-0.4-0.4l-8.4-10.6c-0.2-0.3-0.4-0.5-0.7-0.6c-0.2-0.1-0.6-0.2-1.1-0.2H41.6z M41.6,34.5
			h4.5c1.2,0,2.2-0.1,3.1-0.4c0.9-0.3,1.7-0.7,2.3-1.2c0.6-0.5,1.1-1.1,1.5-1.9c0.3-0.7,0.5-1.5,0.5-2.5c0-1.9-0.6-3.2-1.8-4.1
			c-1.2-0.9-3-1.3-5.3-1.3h-4.8V34.5z"/>
		<path d="M68.3,18.1l0.8,1.3l-11.7,7.3l5.6,9l9.7-6.1l0.8,1.3l-9.7,6.1l5.8,9.3l11.7-7.3l0.8,1.3l-13.3,8.3L55,26.3L68.3,18.1z"/>
		<path d="M95.2,41.2c0.1-0.2,0.2-0.4,0.2-0.6c0.1-0.2,0.2-0.4,0.3-0.5L106,21.9c0.1-0.2,0.2-0.3,0.3-0.3c0.1,0,0.2-0.1,0.4-0.1h1.3
			v26.2h-1.7V25.5c0-0.3,0-0.7,0.1-1L96.1,42.7c-0.2,0.3-0.4,0.5-0.7,0.5h-0.3c-0.3,0-0.6-0.2-0.7-0.5L83.8,24.4
			c0,0.4,0.1,0.7,0.1,1v22.3h-1.6V21.6h1.3c0.2,0,0.3,0,0.4,0.1c0.1,0,0.2,0.1,0.3,0.3l10.6,18.2C94.9,40.5,95.1,40.9,95.2,41.2z"/>
		<path d="M120.4,37.2v10.5h-1.9V21.6h6.7c3.1,0,5.4,0.7,6.9,2c1.6,1.3,2.3,3.3,2.3,5.8c0,1.1-0.2,2.2-0.6,3.2c-0.4,1-1,1.8-1.8,2.5
			c-0.8,0.7-1.8,1.2-2.9,1.6c-1.1,0.4-2.4,0.6-3.9,0.6H120.4z M120.4,35.7h4.9c1.2,0,2.2-0.2,3.1-0.5c0.9-0.3,1.7-0.8,2.3-1.3
			c0.6-0.6,1.1-1.2,1.5-2c0.3-0.8,0.5-1.6,0.5-2.5c0-2-0.6-3.6-1.9-4.6c-1.2-1.1-3.1-1.6-5.5-1.6h-4.9V35.7z"/>
		<path d="M138.1,47.8h-1.9V29.1h1.9V47.8z"/>
		<path d="M138.1,26h-1.9v-4.4h1.9V26z"/>
		<path d="M181.1,21.6v1.6h-13.8v10.6h11.5v1.5h-11.5v10.9h13.8v1.6h-15.7V21.6H181.1z"/>
		<path d="M195.9,21.6h1.9v26.2h-14.3v-1.6h12.4V21.6z"/>
		<g>
			<rect x="141.4" y="21.6" fill="#00ADEE" width="4.4" height="4.4"/>
			<rect x="141.4" y="39.3" fill="#EB008B" width="4.4" height="8.4"/>
			<rect x="145.8" y="26" fill="#00ADEE" width="4.4" height="4.4"/>
			<rect x="145.8" y="34.8" fill="#00ADEE" width="4.4" height="4.4"/>
			<rect x="150.2" y="30.4" fill="#EB008B" width="4.4" height="4.4"/>
			<rect x="154.6" y="26" fill="#00ADEE" width="4.4" height="4.4"/>
			<rect x="154.6" y="34.8" fill="#00ADEE" width="4.4" height="4.4"/>
			<rect x="159" y="21.6" fill="#00ADEE" width="4.4" height="4.4"/>
			<rect x="159" y="39.3" fill="#EB008B" width="4.4" height="8.4"/>
		</g>
	</g>
	<g>
		<path d="M2.9,23.1l0.3,1.3c0,0-1.4,4.2-1.5,5.2l2.5-5L2.9,23.1z"/>
		<path d="M11.4,23.3l0.1,0.6c0,0-2.5,4.3-2.5,4.6c0,0.3-0.8-0.1-0.8-0.1L11.4,23.3z"/>
		<image width="101" height="76" xlink:href="161A02EC.png"  transform="matrix(1 0 0 1 -32 15)">
		</image>
		<g>
			<path fill="#FFF100" d="M15,18.9l0.2-1c-0.5,0.1-1,0.2-1.5,0.3l-0.1,1C14.1,19.1,14.6,19,15,18.9z"/>
			<path fill="#231F20" d="M12.1,18.7c-0.5,0.2-0.9,0.4-1.4,0.6l0.1,1c0.4-0.2,0.8-0.4,1.3-0.6L12.1,18.7z"/>
			<path fill="#231F20" d="M28.4,32.4l1-0.1c-0.1-0.4-0.1-0.9-0.3-1.3l-0.9,0.2C28.3,31.5,28.3,32,28.4,32.4z"/>
			<path fill="#EB008B" d="M28.5,33.8l1-0.1c0-0.5-0.1-1-0.1-1.5l-1,0.1C28.5,32.8,28.5,33.3,28.5,33.8z"/>
			<path fill="#EB008B" d="M27.9,40.8c-0.2,0.4-0.5,0.7-0.8,1l0.9,0.4c0.3-0.4,0.6-0.7,0.8-1.1L27.9,40.8z"/>
			<path fill="#FFF100" d="M29,41.2c-0.3,0.4-0.6,0.7-0.9,1.1l0.9,0.4c0.3-0.4,0.6-0.8,0.9-1.2L29,41.2z"/>
			<path fill="#00ADEE" d="M13.6,19.2l0.1-1c-0.5,0.1-1,0.3-1.5,0.5l0,1C12.6,19.5,13.1,19.4,13.6,19.2z"/>
			<path fill="#EB008B" d="M24.4,26c-0.1-0.1-0.2-0.2-0.3-0.3l-0.8,0.6c0.1,0.1,0.3,0.2,0.4,0.4c0.2,0.2,0.3,0.3,0.4,0.5l0.8-0.5
				C24.8,26.4,24.7,26.2,24.4,26z"/>
			<path fill="#231F20" d="M16.4,18.7l0.2-1c-0.5,0-1,0.1-1.4,0.2l-0.2,1C15.5,18.8,15.9,18.7,16.4,18.7z"/>
			<path fill="#FFF100" d="M28.5,35.2l1,0c0-0.5,0.1-1,0-1.5l-1,0.1C28.5,34.3,28.5,34.8,28.5,35.2z"/>
			<path fill="#231F20" d="M25,26.6l-0.8,0.5c0.2,0.3,0.5,0.5,0.7,0.8l0.9-0.5C25.5,27.2,25.3,26.9,25,26.6z"/>
			<path fill="#231F20" d="M22.2,24.2l-0.7,0.7c0.3,0.2,0.6,0.4,0.9,0.6l0.7-0.7C22.9,24.6,22.5,24.4,22.2,24.2z"/>
			<path fill="#FFF100" d="M23.2,24.9l-0.7,0.7c0.3,0.2,0.6,0.5,0.9,0.8l0.8-0.6C23.8,25.4,23.5,25.1,23.2,24.9z"/>
			<path fill="#FFF100" d="M25.7,27.5L24.9,28c0.3,0.3,0.5,0.7,0.7,1.1l0.9-0.4C26.3,28.3,26,27.9,25.7,27.5z"/>
			<path fill="#FFF100" d="M27.9,32.5l-1,0.1c0.1,0.4,0.1,0.8,0.2,1.3l1-0.1C28,33.4,27.9,32.9,27.9,32.5z"/>
			<path fill="#231F20" d="M26.5,28.7l-0.9,0.4c0.2,0.4,0.4,0.8,0.6,1.2l0.9-0.3C26.9,29.5,26.7,29.1,26.5,28.7z"/>
			<path fill="#231F20" d="M28,33.8l-1,0.1c0,0.3,0,0.6,0,0.9c0,0.2,0,0.3,0,0.5l1,0c0-0.2,0-0.3,0-0.5C28.1,34.4,28.1,34.1,28,33.8
				z"/>
			<path fill="#EB008B" d="M19,26.2L18.4,27c0.3,0.1,0.5,0.2,0.8,0.4l0.7-0.7C19.6,26.5,19.3,26.4,19,26.2z"/>
			<path fill="#EB008B" d="M27.1,30l-0.9,0.3c0.2,0.4,0.3,0.8,0.4,1.2l0.9-0.2C27.4,30.8,27.3,30.4,27.1,30z"/>
			<path fill="#00ADEE" d="M10.8,19.3c-0.4,0.2-0.7,0.4-1.1,0.6l0.2,1c0.3-0.2,0.6-0.4,1-0.6L10.8,19.3z"/>
			<path fill="#EB008B" d="M9.4,20.2c-0.4,0.2-0.7,0.4-1.1,0.6l0.2,1c0.3-0.2,0.6-0.4,1-0.6L9.4,20.2z"/>
			<path fill="#EB008B" d="M4.7,21c-0.2,0.4-0.3,0.8-0.4,1.1L5,22.8c0.1-0.4,0.2-0.7,0.4-1.1L4.7,21z"/>
			<path fill="#00ADEE" d="M6.5,21c-0.3,0.2-0.7,0.5-1,0.7l0.3,1c0.3-0.3,0.6-0.5,0.9-0.7L6.5,21z"/>
			<path fill="#FFF100" d="M5.4,19.4C5.2,19.7,5,20,4.8,20.3l0.8,0.6c0.2-0.3,0.4-0.6,0.5-0.9L5.4,19.4z"/>
			<path fill="#00ADEE" d="M8.4,21.7c-0.4,0-0.8,0.1-1.2,0.1l-0.2,1c0.4-0.1,0.8-0.1,1.1-0.1L8.4,21.7z"/>
			<path fill="#231F20" d="M7.3,19.8c-0.2,0.4-0.4,0.7-0.6,1.1l0.7,0.7c0.2-0.4,0.3-0.7,0.5-1L7.3,19.8z"/>
			<path fill="#EB008B" d="M7.4,18c-0.2,0.4-0.4,0.7-0.6,1.1l0.7,0.7c0.2-0.4,0.3-0.7,0.5-1L7.4,18z"/>
			<path fill="#00ADEE" d="M27.7,22.8c0.1,0.1,0.1,0.1,0.2,0.2l0.8-0.6c-0.1-0.1-0.2-0.2-0.3-0.3c-0.3-0.3-0.7-0.6-1-0.9l-0.7,0.7
				C27,22.1,27.3,22.4,27.7,22.8z"/>
			<path fill="#231F20" d="M28.8,24.1l0.8-0.5c-0.3-0.4-0.7-0.8-1-1.2L27.9,23C28.2,23.4,28.5,23.7,28.8,24.1z"/>
			<path fill="#00ADEE" d="M10.9,20.7c-0.3,0.2-0.7,0.3-1,0.5l0.2,1c0.3-0.2,0.6-0.3,0.9-0.5L10.9,20.7z"/>
			<path fill="#FFF100" d="M10,21.2c-0.3,0.2-0.7,0.3-1,0.5l0.2,1c0.3-0.2,0.6-0.3,0.9-0.5L10,21.2z"/>
			<path fill="#FFF100" d="M26.6,21.8l0.7-0.7c-0.4-0.3-0.8-0.7-1.3-1l-0.7,0.7C25.8,21.2,26.2,21.5,26.6,21.8z"/>
			<path fill="#EB008B" d="M31.2,28.6l0.9-0.3c-0.2-0.6-0.4-1.2-0.7-1.8l-0.9,0.4C30.8,27.5,31,28,31.2,28.6z"/>
			<path fill="#00ADEE" d="M21.1,23.6l-0.6,0.8c0.4,0.2,0.7,0.4,1.1,0.6l0.7-0.7C21.9,24,21.5,23.8,21.1,23.6z"/>
			<path fill="#EB008B" d="M10.9,22.1c-0.3,0.1-0.5,0.2-0.8,0.4l0.2,1c0.2-0.1,0.5-0.3,0.8-0.4L10.9,22.1z"/>
			<path fill="#FFF100" d="M31.2,28.6c0.2,0.6,0.3,1.1,0.4,1.7l0.9-0.2c-0.1-0.6-0.2-1.2-0.4-1.8L31.2,28.6z"/>
			<path fill="#FFF100" d="M29.7,25.3l0.9-0.5c-0.3-0.4-0.6-0.9-0.9-1.3l-0.8,0.5C29.1,24.5,29.4,24.9,29.7,25.3z"/>
			<path fill="#231F20" d="M30.5,26.9l0.9-0.4c-0.3-0.6-0.6-1.1-0.9-1.6l-0.9,0.5C30,25.8,30.3,26.4,30.5,26.9z"/>
			<path fill="#00ADEE" d="M23.9,20.1l0.6-0.8c-0.6-0.3-1.1-0.5-1.7-0.7l-0.5,0.8C22.8,19.6,23.4,19.8,23.9,20.1z"/>
			<path fill="#00ADEE" d="M31.8,31.9l1-0.1c0-0.5-0.1-1.1-0.2-1.6l-0.9,0.2C31.7,30.8,31.7,31.4,31.8,31.9z"/>
			<path fill="#231F20" d="M20.7,19l0.5-0.9c-0.5-0.1-0.9-0.2-1.4-0.3l-0.4,0.9C19.8,18.8,20.2,18.9,20.7,19z"/>
			<path fill="#FFF100" d="M15.5,22.4c-0.3,0-0.7,0-1,0.1l-0.2,1c0.3,0,0.6-0.1,0.9-0.1L15.5,22.4z"/>
			<path fill="#EB008B" d="M22.3,19.4l0.5-0.8c-0.5-0.2-1.1-0.4-1.7-0.5L20.7,19C21.2,19.1,21.8,19.2,22.3,19.4z"/>
			<path fill="#FFF100" d="M17.7,18.6c0.1,0,0.2,0,0.3,0l0.3-1c-0.2,0-0.4,0-0.6,0c-0.3,0-0.7,0-1,0l-0.2,1
				C16.8,18.7,17.2,18.6,17.7,18.6z"/>
			<path fill="#231F20" d="M25.4,20.9l0.7-0.7c-0.5-0.3-1-0.6-1.5-0.9l-0.6,0.8C24.4,20.3,24.9,20.6,25.4,20.9z"/>
			<path fill="#EB008B" d="M15.8,20.9c-0.4,0-0.8,0-1.1,0.1l-0.2,1c0.3-0.1,0.7-0.1,1.1-0.1L15.8,20.9z"/>
			<path fill="#00ADEE" d="M11.5,25.7c-0.2,0.1-0.4,0.1-0.6,0.2l0.2,1c0.2-0.1,0.4-0.1,0.6-0.2L11.5,25.7z"/>
			<path fill="#00ADEE" d="M19.3,18.7l0.4-0.9c-0.5-0.1-1-0.1-1.5-0.1l-0.3,1C18.4,18.7,18.9,18.7,19.3,18.7z"/>
			<path fill="#EB008B" d="M25.1,18.6l0.6-0.8c-0.6-0.3-1.2-0.6-1.9-0.8l-0.5,0.8C23.9,18,24.5,18.3,25.1,18.6z"/>
			<path fill="#00ADEE" d="M26.7,19.5l0.7-0.7c-0.5-0.4-1.1-0.7-1.7-1l-0.6,0.8C25.7,18.9,26.2,19.2,26.7,19.5z"/>
			<path fill="#231F20" d="M28.1,20.5l0.7-0.7c-0.4-0.4-0.9-0.7-1.4-1.1l-0.7,0.7C27.2,19.8,27.6,20.2,28.1,20.5z"/>
			<path fill="#00ADEE" d="M29,21.4c0.1,0.1,0.3,0.3,0.4,0.4l0.8-0.6c-0.2-0.2-0.3-0.4-0.5-0.5c-0.3-0.3-0.6-0.6-0.9-0.8l-0.7,0.7
				C28.4,20.8,28.7,21.1,29,21.4z"/>
			<path fill="#00ADEE" d="M23.3,17.8l0.5-0.8c-0.6-0.2-1.2-0.4-1.9-0.5l-0.5,0.9C22.1,17.4,22.7,17.6,23.3,17.8z"/>
			<path fill="#FFF100" d="M21.5,17.3l0.5-0.9c-0.5-0.1-1-0.2-1.6-0.3L20,17.1C20.6,17.1,21,17.2,21.5,17.3z"/>
			<path fill="#00ADEE" d="M20,17.1l0.4-0.9c-0.5-0.1-1.1-0.1-1.6-0.1l-0.3,1C19,17,19.5,17,20,17.1z"/>
			<path fill="#00ADEE" d="M32.9,28.1l0.9-0.3c-0.2-0.7-0.4-1.4-0.7-2l-0.9,0.4C32.5,26.8,32.7,27.4,32.9,28.1z"/>
			<path fill="#EB008B" d="M33.3,29.9l0.9-0.2c-0.1-0.7-0.2-1.3-0.4-2l-0.9,0.3C33.1,28.7,33.2,29.3,33.3,29.9z"/>
			<path fill="#231F20" d="M32.2,26.1l0.9-0.4c-0.3-0.6-0.6-1.2-0.9-1.8l-0.9,0.5C31.7,25,32,25.6,32.2,26.1z"/>
			<path fill="#EB008B" d="M31.4,24.4l0.9-0.5c-0.3-0.5-0.6-1-0.9-1.4l-0.8,0.5C30.8,23.5,31.1,23.9,31.4,24.4z"/>
			<path fill="#231F20" d="M30.5,23.1l0.8-0.5c-0.3-0.4-0.7-0.9-1.1-1.3l-0.8,0.6C29.8,22.2,30.1,22.6,30.5,23.1z"/>
			<path fill="#EB008B" d="M29,42.8l0.9,0.4c0.4-0.4,0.7-0.8,1.1-1.2l-0.9-0.4C29.7,42,29.4,42.4,29,42.8z"/>
			<path fill="#FFF100" d="M33.4,31.6l1-0.1c0-0.6-0.1-1.2-0.2-1.8l-0.9,0.2C33.4,30.5,33.4,31.1,33.4,31.6z"/>
			<path fill="#FFF100" d="M18.3,17c0.1,0,0.1,0,0.2,0l0.3-1c-0.2,0-0.3,0-0.5,0c-0.4,0-0.9,0-1.3,0.1l-0.2,1
				C17.3,17,17.8,17,18.3,17z"/>
			<path fill="#FFF100" d="M30.1,41.6L31,42c0.4-0.5,0.7-1,1-1.5l-1-0.3C30.8,40.7,30.4,41.2,30.1,41.6z"/>
			<path fill="#EB008B" d="M16.8,17.1l0.2-1c-0.5,0-1,0.1-1.6,0.2l-0.2,1C15.8,17.2,16.3,17.1,16.8,17.1z"/>
			<path fill="#00ADEE" d="M15.3,17.3l0.2-1c-0.6,0.1-1.1,0.2-1.7,0.4l-0.1,1C14.2,17.5,14.8,17.4,15.3,17.3z"/>
			<path fill="#231F20" d="M13.7,17.7l0.1-1c-0.6,0.2-1.1,0.4-1.7,0.6l0,1.1C12.6,18.1,13.2,17.9,13.7,17.7z"/>
			<path fill="#00ADEE" d="M12.1,18.3l0-1.1c-0.5,0.2-1,0.5-1.5,0.7l0.1,1C11.2,18.8,11.6,18.5,12.1,18.3z"/>
			<path fill="#231F20" d="M19.9,23.1l-0.5,0.8c0.4,0.1,0.8,0.3,1.2,0.5l0.6-0.8C20.7,23.4,20.3,23.2,19.9,23.1z"/>
			<path fill="#EB008B" d="M10.7,19l-0.1-1c-0.4,0.2-0.8,0.4-1.1,0.7l0.2,1C10,19.5,10.4,19.2,10.7,19z"/>
			<path fill="#FFF100" d="M9.6,19.8l-0.1-1c-0.4,0.2-0.8,0.4-1.1,0.7l0.2,1C8.9,20.2,9.2,20,9.6,19.8z"/>
			<path fill="#231F20" d="M19,22.2l0.5-0.9c-0.4-0.1-0.7-0.2-1.1-0.2L17.9,22C18.3,22,18.6,22.1,19,22.2z"/>
			<path fill="#00ADEE" d="M16.8,21.9l0.3-1c-0.3,0-0.5,0-0.8,0c-0.2,0-0.3,0-0.5,0l-0.2,1c0.2,0,0.5,0,0.7,0
				C16.5,21.9,16.6,21.9,16.8,21.9z"/>
			<path fill="#EB008B" d="M17.9,22l0.4-0.9C17.9,21,17.5,21,17.1,21l-0.3,1C17.2,21.9,17.5,22,17.9,22z"/>
			<path fill="#EB008B" d="M34.4,31.5l-1,0.1c0,0.6,0,1.3-0.1,1.9l1-0.1C34.4,32.8,34.4,32.1,34.4,31.5z"/>
			<path fill="#EB008B" d="M20.2,22.5l0.5-0.8c-0.4-0.2-0.9-0.3-1.3-0.4L19,22.2C19.4,22.3,19.8,22.4,20.2,22.5z"/>
			<path fill="#231F20" d="M22.7,23.7l0.7-0.7c-0.4-0.3-0.8-0.5-1.2-0.7l-0.6,0.8C21.9,23.3,22.3,23.5,22.7,23.7z"/>
			<path fill="#FFF100" d="M17.7,22.5l-0.4,0.9c0.3,0,0.6,0.1,0.9,0.2l0.5-0.9C18.4,22.6,18,22.6,17.7,22.5z"/>
			<path fill="#FFF100" d="M18.7,22.7l-0.5,0.9c0.4,0.1,0.8,0.2,1.1,0.3l0.5-0.8C19.5,22.9,19.1,22.8,18.7,22.7z"/>
			<path fill="#231F20" d="M16.6,22.4l-0.3,0.9c0.3,0,0.7,0,1,0.1l0.4-0.9C17.3,22.5,17,22.4,16.6,22.4z"/>
			<path fill="#EB008B" d="M15.7,22.4c-0.1,0-0.2,0-0.2,0l-0.2,1c0.2,0,0.3,0,0.5,0c0.2,0,0.4,0,0.6,0l0.3-0.9
				C16.3,22.4,16,22.4,15.7,22.4z"/>
			<path fill="#EB008B" d="M12.2,20.1c-0.4,0.2-0.8,0.3-1.3,0.5l0.1,1c0.4-0.2,0.8-0.4,1.2-0.5L12.2,20.1z"/>
			<path fill="#EB008B" d="M21.5,23.1l0.6-0.8c-0.4-0.2-0.9-0.4-1.4-0.6l-0.5,0.8C20.7,22.7,21.1,22.9,21.5,23.1z"/>
			<path fill="#EB008B" d="M31.1,40.2l1,0.3c0.4-0.6,0.7-1.2,0.9-1.8l-1-0.2C31.7,39.1,31.4,39.7,31.1,40.2z"/>
			<path fill="#00ADEE" d="M32,38.6l1,0.2c0.3-0.6,0.5-1.2,0.7-1.8l-1-0.1C32.5,37.4,32.3,38,32,38.6z"/>
			<path fill="#00ADEE" d="M33.1,35.4l1,0c0.1-0.6,0.2-1.3,0.3-1.9l-1,0.1C33.3,34.1,33.2,34.7,33.1,35.4z"/>
			<path fill="#00ADEE" d="M28.2,31.1l0.9-0.2c-0.1-0.5-0.3-1-0.4-1.4l-0.9,0.3C27.9,30.2,28,30.7,28.2,31.1z"/>
			<path fill="#EB008B" d="M32.7,36.9l1,0.1c0.2-0.5,0.3-1,0.4-1.6l-1,0C33,35.9,32.9,36.4,32.7,36.9z"/>
			<path fill="#00ADEE" d="M26.4,27.2l0.9-0.5c-0.2-0.3-0.5-0.7-0.8-1l-0.8,0.5C25.9,26.5,26.1,26.8,26.4,27.2z"/>
			<path fill="#FFF100" d="M25.5,24.7l-0.8,0.6c0.1,0.1,0.1,0.1,0.2,0.2c0.2,0.2,0.5,0.5,0.7,0.7l0.8-0.5
				C26.2,25.4,25.9,25.1,25.5,24.7C25.6,24.8,25.6,24.7,25.5,24.7z"/>
			<path fill="#231F20" d="M24.8,25.3l0.8-0.6c-0.4-0.3-0.7-0.7-1.1-1l-0.7,0.7C24.1,24.7,24.4,25,24.8,25.3z"/>
			<path fill="#231F20" d="M27.1,28.4L28,28c-0.2-0.4-0.5-0.9-0.8-1.3l-0.9,0.5C26.6,27.6,26.9,28,27.1,28.4z"/>
			<path fill="#FFF100" d="M27.7,29.8l0.9-0.3c-0.2-0.5-0.4-1-0.7-1.5l-0.9,0.4C27.3,28.8,27.6,29.3,27.7,29.8z"/>
			<path fill="#FFF100" d="M23.7,24.4l0.7-0.7c-0.3-0.3-0.7-0.5-1-0.7l-0.7,0.7C23.1,23.9,23.4,24.1,23.7,24.4z"/>
			<path fill="#231F20" d="M27.6,31.3l-0.9,0.2c0.1,0.4,0.2,0.7,0.3,1.1l1-0.1C27.8,32,27.7,31.7,27.6,31.3z"/>
			<path fill="#FFF100" d="M31.8,32.8c0,0.3,0,0.6,0,0.8l1-0.1c0-0.3,0-0.5,0-0.8c0-0.3,0-0.7,0-1l-1,0.1
				C31.8,32.2,31.8,32.5,31.8,32.8z"/>
			<path fill="#00ADEE" d="M28.7,39.5c-0.2,0.4-0.5,0.9-0.8,1.3l0.9,0.4c0.3-0.4,0.6-0.9,0.8-1.4L28.7,39.5z"/>
			<path fill="#231F20" d="M29,41.2l0.9,0.4c0.3-0.5,0.6-0.9,0.9-1.4l-1-0.3C29.6,40.3,29.3,40.8,29,41.2z"/>
			<path fill="#231F20" d="M29.8,36.6l1,0.1c0.1-0.4,0.2-0.9,0.2-1.4l-1,0C30,35.7,29.9,36.1,29.8,36.6z"/>
			<path fill="#EB008B" d="M29.3,38.1l1,0.2c0.2-0.5,0.3-1,0.5-1.6l-1-0.1C29.7,37.1,29.5,37.6,29.3,38.1z"/>
			<path fill="#00ADEE" d="M30,35.3l1,0c0.1-0.5,0.1-1.1,0.1-1.7l-1,0.1C30.2,34.2,30.1,34.8,30,35.3z"/>
			<path fill="#231F20" d="M15.6,25.3l-0.3,0.9c0.2,0,0.5,0,0.7,0.1l0.4-0.9C16.2,25.4,15.9,25.3,15.6,25.3z"/>
			<path fill="#EB008B" d="M14.8,25.3l-0.2,1c0.3,0,0.5,0,0.8,0l0.3-0.9C15.3,25.3,15.1,25.3,14.8,25.3z"/>
			<path fill="#EB008B" d="M25.8,40c-0.2,0.3-0.4,0.6-0.6,1l0.9,0.4c0.2-0.3,0.4-0.7,0.6-1L25.8,40z"/>
			<path fill="#00ADEE" d="M26.2,41.4l0.9,0.4c0.2-0.3,0.5-0.7,0.7-1.1l-0.9-0.4C26.6,40.7,26.4,41,26.2,41.4z"/>
			<path fill="#231F20" d="M27.5,39.2c-0.2,0.4-0.4,0.8-0.6,1.2l0.9,0.4c0.2-0.4,0.5-0.9,0.7-1.3L27.5,39.2z"/>
			<path fill="#EB008B" d="M26.4,32.7l-1,0.1c0.1,0.4,0.2,0.8,0.2,1.1l1-0.1C26.6,33.5,26.5,33.1,26.4,32.7z"/>
			<path fill="#EB008B" d="M26.7,36.3l-1-0.1c0,0.4-0.1,0.8-0.2,1.2l1,0.2C26.6,37.1,26.6,36.7,26.7,36.3z"/>
			<path fill="#FFF100" d="M26.7,35.2l-1,0c0,0.3,0,0.7,0,1l1,0.1C26.7,35.9,26.7,35.6,26.7,35.2z"/>
			<path fill="#231F20" d="M25.5,37.3c-0.1,0.4-0.2,0.8-0.3,1.2l0.9,0.3c0.1-0.4,0.2-0.8,0.3-1.3L25.5,37.3z"/>
			<path fill="#00ADEE" d="M17.2,25.6c-0.2-0.1-0.5-0.1-0.8-0.2L16,26.3c0.2,0,0.5,0.1,0.7,0.1L17.2,25.6z"/>
			<path fill="#231F20" d="M26.6,33.9l-1,0.1c0.1,0.4,0.1,0.8,0.1,1.2l1,0C26.7,34.8,26.7,34.3,26.6,33.9z"/>
			<path fill="#FFF100" d="M25.1,37.2l-1-0.2c0,0.4-0.1,0.7-0.2,1.1l0.9,0.3C25,38,25,37.6,25.1,37.2z"/>
			<path fill="#00ADEE" d="M29.9,39.9l1,0.3c0.3-0.5,0.6-1.1,0.8-1.7l-1-0.2C30.4,38.8,30.2,39.4,29.9,39.9z"/>
			<path fill="#FFF100" d="M26.1,31.6l-1,0.2c0.1,0.3,0.2,0.7,0.3,1l1-0.1C26.3,32.3,26.2,31.9,26.1,31.6z"/>
			<path fill="#EB008B" d="M28.3,36.4c-0.1,0.5-0.2,0.9-0.3,1.4l1,0.2c0.1-0.5,0.3-1,0.3-1.5L28.3,36.4z"/>
			<path fill="#EB008B" d="M26.3,38.8l0.9,0.3c0.2-0.4,0.3-0.9,0.4-1.4l-1-0.2C26.6,38,26.5,38.4,26.3,38.8z"/>
			<path fill="#231F20" d="M27,36.3c-0.1,0.4-0.1,0.8-0.2,1.3l1,0.2c0.1-0.4,0.2-0.9,0.3-1.3L27,36.3z"/>
			<path fill="#231F20" d="M30.7,38.3l1,0.2c0.2-0.6,0.4-1.1,0.6-1.7l-1-0.1C31.1,37.3,30.9,37.8,30.7,38.3z"/>
			<path fill="#EB008B" d="M14,25.3l-0.2,1c0.2,0,0.4,0,0.7,0c0,0,0,0,0,0l0.2-1c-0.1,0-0.2,0-0.2,0C14.3,25.3,14.2,25.3,14,25.3z"
				/>
			<path fill="#231F20" d="M13.2,25.3l-0.1,1c0.2,0,0.5-0.1,0.7-0.1l0.2-1C13.7,25.3,13.4,25.3,13.2,25.3z"/>
			<path fill="#00ADEE" d="M12.3,25.5l0,1c0.3-0.1,0.5-0.1,0.8-0.1l0.1-1C12.9,25.4,12.6,25.4,12.3,25.5z"/>
			<path fill="#00ADEE" d="M24.8,39.6c-0.1,0.3-0.3,0.6-0.5,0.9l0.9,0.4c0.2-0.3,0.3-0.6,0.5-1L24.8,39.6z"/>
			<path fill="#00ADEE" d="M13.4,22.6c-0.4,0.1-0.8,0.2-1.1,0.3l0,1c0.3-0.1,0.7-0.2,1-0.3L13.4,22.6z"/>
			<path fill="#231F20" d="M20.6,27.2l-0.7,0.7c0.3,0.2,0.5,0.3,0.7,0.5l0.8-0.6C21.1,27.6,20.9,27.4,20.6,27.2z"/>
			<path fill="#FFDD15" d="M17.2,25.6l-0.5,0.9c0.3,0.1,0.6,0.1,0.8,0.2l0.5-0.8C17.8,25.8,17.5,25.7,17.2,25.6z"/>
			<path fill="#231F20" d="M18.1,25.9l-0.5,0.8c0.3,0.1,0.6,0.2,0.9,0.3l0.6-0.8C18.7,26.1,18.4,26,18.1,25.9z"/>
			<path fill="#231F20" d="M21.9,29.6l0.9-0.5c-0.2-0.2-0.4-0.4-0.6-0.7L21.3,29c0,0,0,0,0,0C21.5,29.2,21.7,29.4,21.9,29.6z"/>
			<path fill="#00ADEE" d="M22.1,28.4c-0.2-0.2-0.4-0.4-0.7-0.6l-0.8,0.6c0.3,0.2,0.5,0.4,0.7,0.7l0.8-0.5
				C22.1,28.5,22.1,28.4,22.1,28.4z"/>
			<path fill="#FFF100" d="M19.2,27.4c0.2,0.1,0.5,0.3,0.7,0.4l0.7-0.7c-0.2-0.2-0.5-0.3-0.7-0.5L19.2,27.4z"/>
			<path fill="#231F20" d="M13.3,23.9c-0.3,0.1-0.7,0.1-1,0.2l0,1c0.3-0.1,0.6-0.2,0.9-0.2L13.3,23.9z"/>
			<path fill="#00ADEE" d="M22.7,29.2l-0.9,0.5c0.2,0.3,0.4,0.5,0.6,0.8l0.9-0.4C23.2,29.7,23,29.4,22.7,29.2z"/>
			<path fill="#FFF100" d="M23.4,30l-0.9,0.4c0.2,0.3,0.4,0.6,0.5,0.9L24,31C23.8,30.7,23.6,30.3,23.4,30z"/>
			<path fill="#EB008B" d="M13.5,21.2c-0.4,0.1-0.8,0.2-1.3,0.3l0,1c0.4-0.1,0.8-0.2,1.2-0.3L13.5,21.2z"/>
			<path fill="#EB008B" d="M23.7,39.1c-0.1,0.3-0.2,0.6-0.3,0.9l0.9,0.4c0.1-0.3,0.3-0.6,0.4-0.9L23.7,39.1z"/>
			<path fill="#EB008B" d="M23.5,32.2c0.1,0.3,0.2,0.6,0.3,0.8l1-0.1c-0.1-0.3-0.2-0.6-0.3-0.9L23.5,32.2z"/>
			<path fill="#231F20" d="M24,31L23,31.3c0.2,0.3,0.3,0.6,0.4,0.9l1-0.2C24.3,31.6,24.1,31.3,24,31z"/>
			<path fill="#FFF100" d="M13.6,19.7c-0.5,0.1-0.9,0.3-1.4,0.4l0,1c0.4-0.2,0.9-0.3,1.3-0.4L13.6,19.7z"/>
			<path fill="#00ADEE" d="M24.7,32.9l-1,0.1c0.1,0.3,0.2,0.7,0.2,1l1-0.1C24.9,33.6,24.8,33.3,24.7,32.9z"/>
			<path fill="#FFF100" d="M25.2,36.1c0-0.3,0-0.6,0-0.9l-1,0c0,0.3,0,0.6,0,0.9L25.2,36.1z"/>
			<path fill="#231F20" d="M25,34L24,34c0.1,0.4,0.1,0.7,0.2,1.1l1,0C25.1,34.8,25.1,34.4,25,34z"/>
			<path fill="#00ADEE" d="M25.2,36.1l-1-0.1c0,0.3,0,0.7-0.1,1l1,0.2C25.1,36.9,25.2,36.5,25.2,36.1z"/>
			<path fill="#00ADEE" d="M26.3,24.1C26.3,24.1,26.3,24.1,26.3,24.1l0.8-0.6c0,0-0.1-0.1-0.1-0.1c-0.4-0.4-0.7-0.7-1.1-1l-0.7,0.7
				C25.6,23.4,25.9,23.8,26.3,24.1z"/>
			<path fill="#231F20" d="M27.2,25.2l0.8-0.5c-0.3-0.4-0.6-0.7-1-1.1l-0.8,0.6C26.6,24.5,27,24.8,27.2,25.2z"/>
			<path fill="#FFF100" d="M28,26.2l0.9-0.5c-0.3-0.4-0.5-0.8-0.8-1.1l-0.8,0.5C27.5,25.5,27.8,25.9,28,26.2z"/>
			<path fill="#231F20" d="M25.2,23.1l0.7-0.7c-0.4-0.3-0.8-0.6-1.2-0.9l-0.7,0.7C24.4,22.6,24.8,22.8,25.2,23.1z"/>
			<path fill="#231F20" d="M25.7,30.4l-0.9,0.3c0.2,0.3,0.3,0.7,0.4,1.1l1-0.2C26,31.2,25.8,30.8,25.7,30.4z"/>
			<path fill="#FFF100" d="M22.7,21.6l0.6-0.8c-0.5-0.3-1-0.5-1.5-0.7L21.3,21C21.8,21.1,22.3,21.3,22.7,21.6z"/>
			<path fill="#00ADEE" d="M19.8,20.6l0.5-0.9c-0.4-0.1-0.8-0.2-1.3-0.2l-0.4,0.9C19,20.4,19.4,20.5,19.8,20.6z"/>
			<path fill="#00ADEE" d="M24.1,22.3l0.7-0.7c-0.4-0.3-0.9-0.6-1.4-0.8l-0.6,0.8C23.2,21.8,23.6,22,24.1,22.3z"/>
			<path fill="#231F20" d="M18.6,20.4l0.4-0.9c-0.4-0.1-0.9-0.1-1.3-0.1l-0.3,1C17.8,20.3,18.2,20.3,18.6,20.4z"/>
			<path fill="#231F20" d="M21.3,21l0.5-0.8c-0.5-0.2-1-0.3-1.5-0.5l-0.5,0.9C20.3,20.7,20.8,20.8,21.3,21z"/>
			<path fill="#EB008B" d="M29.5,29.2l0.9-0.3c-0.2-0.6-0.4-1.1-0.7-1.6l-0.9,0.4C29.1,28.1,29.3,28.7,29.5,29.2z"/>
			<path fill="#231F20" d="M12.3,25.5c-0.3,0.1-0.5,0.1-0.8,0.2l0.1,1c0.2-0.1,0.5-0.1,0.7-0.2L12.3,25.5z"/>
			<path fill="#EB008B" d="M27.1,35.2c0,0.4,0,0.7-0.1,1.1l1,0.1C28,36,28,35.6,28,35.2L27.1,35.2z"/>
			<path fill="#231F20" d="M12.3,24.1c-0.3,0.1-0.6,0.2-0.9,0.3l0.1,1c0.3-0.1,0.5-0.2,0.8-0.3L12.3,24.1z"/>
			<path fill="#FFF100" d="M17,20.3c0.1,0,0.3,0,0.4,0l0.3-1c-0.2,0-0.5,0-0.7,0c-0.3,0-0.5,0-0.8,0l-0.2,1
				C16.3,20.3,16.6,20.3,17,20.3z"/>
			<path fill="#231F20" d="M29.9,30.7l0.9-0.2c-0.1-0.5-0.3-1.1-0.4-1.6l-0.9,0.3C29.6,29.7,29.8,30.2,29.9,30.7z"/>
			<path fill="#00ADEE" d="M31.2,36.7l1,0.1c0.1-0.5,0.2-1,0.3-1.5l-1,0C31.5,35.8,31.4,36.3,31.2,36.7z"/>
			<path fill="#231F20" d="M31.6,35.3l1,0c0.1-0.6,0.2-1.2,0.2-1.8l-1,0.1C31.7,34.2,31.7,34.8,31.6,35.3z"/>
			<path fill="#00ADEE" d="M30.1,32.1l1-0.1c-0.1-0.5-0.1-1-0.2-1.5l-0.9,0.2C30,31.2,30.1,31.7,30.1,32.1z"/>
			<path fill="#FFF100" d="M29.3,38.1c-0.2,0.5-0.4,1-0.7,1.5l0.9,0.3c0.3-0.5,0.5-1,0.7-1.6L29.3,38.1z"/>
			<path fill="#231F20" d="M30.2,33.5c0,0.1,0,0.2,0,0.2l1-0.1c0-0.1,0-0.1,0-0.2c0-0.5,0-1-0.1-1.5l-1,0.1
				C30.1,32.6,30.2,33,30.2,33.5z"/>
			<path fill="#FFF100" d="M28,37.8c-0.1,0.5-0.3,0.9-0.5,1.4l0.9,0.3c0.2-0.5,0.4-1,0.5-1.5L28,37.8z"/>
			<path fill="#231F20" d="M28.5,35.2c0,0.4-0.1,0.8-0.2,1.2l1,0.1c0.1-0.4,0.1-0.8,0.2-1.2L28.5,35.2z"/>
			<path fill="#231F20" d="M28,26.2c0.3,0.4,0.6,0.9,0.8,1.4l0.9-0.4c-0.2-0.5-0.5-1-0.8-1.5L28,26.2z"/>
			<path fill="#231F20" d="M20.1,24.8c-0.4-0.2-0.7-0.3-1.1-0.5l-0.5,0.8c0.3,0.1,0.7,0.2,1,0.4L20.1,24.8z"/>
			<path fill="#00ADEE" d="M22,25.9l-0.7,0.7c0.3,0.2,0.6,0.4,0.8,0.7l0.8-0.6C22.6,26.4,22.3,26.2,22,25.9z"/>
			<path fill="#EB008B" d="M20.1,24.8l-0.6,0.8c0.3,0.1,0.6,0.3,0.9,0.5l0.7-0.7C20.8,25.2,20.5,25,20.1,24.8z"/>
			<path d="M12.2,21.6c-0.4,0.1-0.8,0.3-1.1,0.4l0.1,1c0.3-0.2,0.7-0.3,1-0.4L12.2,21.6z"/>
			<path fill="#EB008B" d="M16,20.3l0.2-1c-0.4,0-0.9,0.1-1.3,0.1l-0.2,1C15.2,20.4,15.6,20.3,16,20.3z"/>
			<path fill="#231F20" d="M21.1,25.4l-0.7,0.7c0.3,0.2,0.5,0.3,0.8,0.5l0.7-0.7C21.7,25.7,21.4,25.5,21.1,25.4z"/>
			<path fill="#00ADEE" d="M25.7,30.4c-0.2-0.4-0.4-0.8-0.6-1.2l-0.9,0.4c0.2,0.3,0.4,0.7,0.6,1.1L25.7,30.4z"/>
			<path fill="#231F20" d="M23.3,27.1c-0.1-0.1-0.3-0.3-0.5-0.4l-0.8,0.6c0.2,0.2,0.4,0.3,0.6,0.5c0.1,0.1,0.2,0.2,0.2,0.2l0.8-0.5
				C23.6,27.4,23.5,27.2,23.3,27.1z"/>
			<path fill="#231F20" d="M23.9,38.1c-0.1,0.3-0.2,0.7-0.3,1l0.9,0.4c0.1-0.4,0.2-0.7,0.3-1.1L23.9,38.1z"/>
			<path fill="#00ADEE" d="M23.7,27.5L22.9,28c0.2,0.2,0.4,0.5,0.6,0.7l0.9-0.5C24.1,28,23.9,27.7,23.7,27.5z"/>
			<path fill="#231F20" d="M24.3,28.3l-0.9,0.5c0.2,0.3,0.5,0.6,0.7,0.9l0.9-0.4C24.8,28.9,24.6,28.6,24.3,28.3z"/>
			<path fill="#EB008B" d="M25.2,38.5c-0.1,0.4-0.3,0.7-0.4,1.1l0.9,0.4c0.2-0.4,0.3-0.8,0.4-1.2L25.2,38.5z"/>
			<path fill="#231F20" d="M14.5,22.4c-0.4,0-0.7,0.1-1.1,0.2l-0.1,1c0.3-0.1,0.7-0.1,1-0.2L14.5,22.4z"/>
			<path fill="#00ADEE" d="M18,24.1L17.5,25c0.3,0.1,0.7,0.2,1,0.3l0.5-0.8C18.7,24.3,18.3,24.2,18,24.1z"/>
			<path fill="#00ADEE" d="M14.9,19.4c-0.5,0.1-0.9,0.2-1.4,0.3l-0.1,1c0.4-0.1,0.9-0.2,1.3-0.3L14.9,19.4z"/>
			<path fill="#231F20" d="M14.7,21c-0.4,0.1-0.8,0.1-1.2,0.2l-0.1,1c0.4-0.1,0.8-0.2,1.1-0.2L14.7,21z"/>
			<path fill="#FFF100" d="M13.3,23.9l-0.1,1c0.3-0.1,0.6-0.1,0.9-0.1l0.2-1C13.9,23.8,13.6,23.8,13.3,23.9z"/>
			<path fill="#00ADEE" d="M26.3,38.8c-0.2,0.4-0.3,0.8-0.5,1.1l0.9,0.4c0.2-0.4,0.4-0.8,0.5-1.2L26.3,38.8z"/>
			<path fill="#231F20" d="M17.1,23.9l-0.4,0.9c0.3,0,0.5,0.1,0.8,0.2l0.5-0.9C17.7,24,17.4,23.9,17.1,23.9z"/>
			<path fill="#231F20" d="M14.2,23.8l-0.2,1c0.3,0,0.5,0,0.8,0l0.2-1C14.8,23.7,14.5,23.7,14.2,23.8z"/>
			<path fill="#FFF100" d="M16.2,23.8l-0.3,0.9c0.3,0,0.6,0,0.9,0.1l0.4-0.9C16.8,23.8,16.5,23.8,16.2,23.8z"/>
			<path fill="#00ADEE" d="M15.1,23.7C15.1,23.7,15.1,23.7,15.1,23.7l-0.2,1c0.1,0,0.2,0,0.2,0c0.2,0,0.5,0,0.7,0l0.3-0.9
				C15.8,23.7,15.5,23.7,15.1,23.7z"/>
		</g>
		<g>
			<path d="M23.8,36.3c0,5.4-4.4,9.8-9.8,9.8c-5.4,0-9.8-4.4-9.8-9.8c0-5.4,4.4-9.8,9.8-9.8C19.4,26.5,23.8,30.9,23.8,36.3z"/>
			<path fill="#FFFFFF" d="M17.5,29.7c0,1.2-1,2.1-2.1,2.1c-1.2,0-2.1-1-2.1-2.1c0-1.2,1-2.1,2.1-2.1C16.6,27.5,17.5,28.5,17.5,29.7
				z"/>
			<path fill="#FFFFFF" d="M19.8,31.2c0,0.5-0.4,1-1,1c-0.5,0-1-0.4-1-1c0-0.5,0.4-1,1-1C19.3,30.2,19.8,30.6,19.8,31.2z"/>
		</g>
		<radialGradient id="SVGID_1_" cx="1.1412" cy="48.326" r="56.2646" gradientUnits="userSpaceOnUse">
			<stop  offset="0" style="stop-color:#EC297B"/>
			<stop  offset="0.1714" style="stop-color:#EA297B"/>
			<stop  offset="0.2517" style="stop-color:#E2297C"/>
			<stop  offset="0.3132" style="stop-color:#D5297D"/>
			<stop  offset="0.365" style="stop-color:#C3297F"/>
			<stop  offset="0.4107" style="stop-color:#AB2981"/>
			<stop  offset="0.4521" style="stop-color:#8E2A84"/>
			<stop  offset="0.4896" style="stop-color:#6C2A87"/>
			<stop  offset="0.5108" style="stop-color:#552A89"/>
			<stop  offset="0.5522" style="stop-color:#612883"/>
			<stop  offset="0.6591" style="stop-color:#7C2475"/>
			<stop  offset="0.7684" style="stop-color:#8F216B"/>
			<stop  offset="0.8806" style="stop-color:#9A2065"/>
			<stop  offset="1" style="stop-color:#9E1F63"/>
		</radialGradient>
		<path fill="url(#SVGID_1_)" d="M28.8,43.3C28.7,43.3,28.7,43.3,28.8,43.3c-0.1,0.1-0.3,0.3-0.4,0.4C28.4,43.6,28.6,43.4,28.8,43.3
			l-1-0.5c-0.1,0.2-0.3,0.3-0.4,0.5c0,0-0.1,0.1-0.1,0.1c0.2-0.2,0.4-0.4,0.5-0.6l-0.9-0.4c-0.3,0.3-0.6,0.6-0.9,0.9
			c0,0-0.1,0.1-0.1,0.1c0,0,0,0,0,0c0,0,0,0,0,0c0.3-0.4,0.6-0.7,0.9-1.1l-0.9-0.4c-0.1,0.1-0.2,0.2-0.2,0.3
			c0.1-0.1,0.1-0.2,0.2-0.3l-0.9-0.4c0,0.1-0.1,0.1-0.1,0.2c0-0.1,0.1-0.1,0.1-0.2L24,41c-0.2,0.3-0.4,0.7-0.6,1
			c-0.3,0.4-0.6,0.8-0.9,1.1c0.3-0.4,0.6-0.8,0.8-1.2c0.2-0.3,0.4-0.7,0.5-1l-0.9-0.4c-0.1,0.3-0.3,0.6-0.5,0.9
			c-0.4,0.7-0.9,1.3-1.5,1.9c-1.9,1.9-4.3,2.9-7,2.9c-2.6,0-5.1-1-7-2.9c-0.1-0.1-0.2-0.2-0.3-0.4c-3.3-3.6-3.4-9-0.4-12.8l0.6,1.2
			l4.6-8l-8.5-0.2l0.6,1.3c-3.3,6-2.6,13.7,2.2,19c0,0,0.1,0.1,0.1,0.1c0,0,0,0,0,0C6,43.7,6.1,43.8,6.3,44c0.1,0.1,0.3,0.3,0.5,0.4
			c0,0,0,0,0.1,0.1c3,2.8,6.9,4.3,11.1,4.3c3.9,0,7.6-1.3,10.5-3.8c0.4-0.3,0.5-0.9,0.5-1.3c0-0.1,0-0.2,0.1-0.3L28.8,43.3z"/>
		<path d="M12.9,48c0,0,9.9,2.4,16.1-4.6l0.3,0.9C29.3,44.3,23.8,51.2,12.9,48z"/>
		<line fill="none" x1="29" y1="43.4" x2="29.3" y2="44.3"/>
	</g>
</g>
<g>
</g>
<g>
</g>
<g>
</g>
<g>
</g>
<g>
</g>
<g>
</g>
<g>
</g>
<g>
</g>
<g>
</g>
<g>
</g>
<g>
</g>
<g>
</g>
<g>
</g>
<g>
</g>
<g>
</g>
</svg>
